<svg version="1.1" xmlns="http://www.w3.org/2000/svg" xmlns:xlink="http://www.w3.org/1999/xlink" x="0px" y="0px"
  viewBox="9.789997100830078 7.599999904632568 490.46002197265625 490.47003173828125">
  <title>React Reaf</title>
  <defs>
    <linearGradient x1="71.5906675%" y1="12.5658792%" x2="45.577567%" y2="114.749969%" id="linearGradient-1">
      <stop stop-color="#6594ED" offset="0%"></stop>
      <stop stop-color="#316BD9" offset="100%"></stop>
    </linearGradient>
    <linearGradient x1="67.6269531%" y1="0%" x2="50%" y2="78.0639648%" id="linearGradient-2">
      <stop stop-color="#EC5060" offset="0%"></stop>
      <stop stop-color="#EA7480" offset="100%"></stop>
    </linearGradient>
    <linearGradient x1="67.6269531%" y1="0%" x2="50%" y2="79.2449951%" id="linearGradient-3">
      <stop stop-color="#EC5060" offset="0%"></stop>
      <stop stop-color="#EA7480" offset="100%"></stop>
    </linearGradient>
  </defs>
  <path fill="url(#linearGradient-3)" d="M372.43,83.05L290.7,222.44c-10.87,18.55-4.65,42.4,13.89,53.27l131.08,76.86
	c18.54,10.87,42.41,4.53,49.78-15.66c9.58-26.22,14.8-54.53,14.8-84.07c0-70.68-29.9-134.37-77.74-179.13
	C406.82,59.02,383.3,64.5,372.43,83.05z"></path>
  <path fill="url(#linearGradient-1)"
    d="M273.91,212.6l81.96-139.78c10.87-18.55,4.58-42.49-15.57-49.97C313.74,12.99,285.01,7.6,255.02,7.6
	c-74.3,0-140.88,33.05-185.84,85.24c-14.03,16.29-7.94,40.19,10.6,51.06l140.86,82.59C239.19,237.36,263.04,231.14,273.91,212.6z"></path>
  <path fill="url(#linearGradient-2)" d="M147.17,428.76l77.51-132.21c10.87-18.55,4.65-42.4-13.89-53.27L70.21,160.86
	c-18.54-10.88-41.86-4.23-48.49,16.22c-7.74,23.86-11.93,49.32-11.93,75.76c0,74.76,33.46,141.7,86.21,186.68
	C112.36,453.47,136.3,447.3,147.17,428.76z"></path>
  <path fill="url(#linearGradient-1)"
    d="M241.48,306.39l-77.29,131.83c-10.87,18.55-4.19,41.78,16.3,48.31c23.51,7.49,48.55,11.54,74.54,11.54
	c71.14,0,135.2-30.29,179.99-78.68c14.61-15.78,9.05-39.35-9.5-50.22L294.75,292.5C276.2,281.63,252.35,287.85,241.48,306.39z"></path>
</svg>
